# xmcd
#
# Track frame offsets:
#	150
#	18852
#	35280
#	51962
#	69157
#	88575
#	105320
#	121685
#	140882
#	163657
#	180080
#	198335
#	217447
#	235567
#	254477
#	271897
#	291737
#
# Disc length: 4157 seconds
#
# Revision: 0
# Processed by: cddbd v1.5.1PL2 Copyright (c) Steve Scherf et al.
# Submitted via: dBpowerAMP V4.0
#
DISCID=f0103b11
DTITLE=Tina Turner - Simple the Best
DYEAR=1900
DGENRE=Blues
TTITLE0=The Best
TTITLE1=Better be good to me
TTITLE2=I can't stand the rain
TTITLE3=What's love got to do with it
TTITLE4=I don't wanna lose you
TTITLE5=Nutbush city limits
TTITLE6=Let's stay together
TTITLE7=We don'y need another hero
TTITLE8=Addicted to love
TTITLE9=River deep-mountain high
TTITLE10=Steamy windows
TTITLE11=typuical male
TTITLE12=private dancer
TTITLE13=It takes two
TTITLE14=I want you near me
TTITLE15=Way of the world
TTITLE16=love thing
EXTD=
EXTT0=
EXTT1=
EXTT2=
EXTT3=
EXTT4=
EXTT5=
EXTT6=
EXTT7=
EXTT8=
EXTT9=
EXTT10=
EXTT11=
EXTT12=
EXTT13=
EXTT14=
EXTT15=
EXTT16=
PLAYORDER=
